<svg xmlns="http://www.w3.org/2000/svg" width="128" height="128" viewBox="0 0 128 128">
  <defs>
    <clipPath id="circleClip"><circle cx="64" cy="64" r="60"/></clipPath>
  </defs>
  <rect width="128" height="128" rx="64" ry="64" fill="#F9D33D"/>
  <g clip-path="url(#circleClip)">
    <!-- Ears -->
    <path d="M28 38 L44 22 L48 44 Z" fill="#2B2B2B"/>
    <path d="M100 38 L84 22 L80 44 Z" fill="#2B2B2B"/>
    <!-- Head -->
    <circle cx="64" cy="68" r="36" fill="#FFE7C7"/>
    <!-- Hair -->
    <path d="M32 60 C32 36, 96 36, 96 60 C92 46, 36 46, 32 60 Z" fill="#2B2B2B"/>
    <!-- Eyes -->
    <circle cx="50" cy="70" r="4" fill="#222"/>
    <circle cx="78" cy="70" r="4" fill="#222"/>
    <!-- Nose -->
    <path d="M64 76 l-4 4 h8 z" fill="#E89C66"/>
    <!-- Mouth -->
    <path d="M52 86 C60 94, 68 94, 76 86" stroke="#C66" stroke-width="3" fill="none" stroke-linecap="round"/>
    <!-- Whiskers -->
    <path d="M30 76 H50" stroke="#555" stroke-width="2" stroke-linecap="round"/>
    <path d="M30 82 H50" stroke="#555" stroke-width="2" stroke-linecap="round"/>
    <path d="M78 76 H98" stroke="#555" stroke-width="2" stroke-linecap="round"/>
    <path d="M78 82 H98" stroke="#555" stroke-width="2" stroke-linecap="round"/>
  </g>
</svg>